# AST/ASF file generated using VICON BodyLanguage
# -----------------------------------------------
:version 1.10
:name VICON
:units
  mass 1.0
  length 0.45
  angle deg
:documentation
   .ast/.asf automatically generated from VICON data using
   VICON BodyBuilder and BodyLanguage model FoxedUp or BRILLIANT.MOD
:root
   order TX TY TZ RX RY RZ
   axis XYZ
   position 0 0 0  
   orientation 0 0 0 
:bonedata
  begin
     id 1 
     name lhipjoint
     direction 0.547975 -0.797114 0.253638 
     length 2.36201 
     axis 0 0 0  XYZ
  end
  begin
     id 2 
     name lfemur
     direction 0.34202 -0.939693 0  
     length 7.69075  
     axis 0 0 20  XYZ
    dof rx ry rz
    limits (-160.0 20.0)
           (-70.0 70.0)
           (-60.0 70.0)
  end
  begin
     id 3 
     name ltibia
     direction 0.34202 -0.939693 0   
     length 7.91399   
     axis 0 0 20   XYZ
    dof rx
    limits (-10.0 170.0)
  end
  begin
     id 4 
     name lfoot
     direction 0.0705293 -0.193778 0.978507   
     length 2.13618   
     axis -90 7.62852e-016 20   XYZ
    dof rx rz
    limits (-45.0 90.0)
           (-70.0 20.0)
  end
  begin
     id 5 
     name ltoes
     direction 1.53592e-011 -4.21925e-011 1   
     length 1.07518   
     axis -90 7.62852e-016 20   XYZ
    dof rx
    limits (-90.0 20.0)
  end
  begin
     id 6 
     name rhipjoint
     direction -0.57 -0.782963 0.249136   
     length 2.4047  
     axis 0 0 0  XYZ 
  end
  begin
     id 7 
     name rfemur
     direction -0.34202 -0.939693 0   
     length 7.51486   
     axis 0 0 -20   XYZ
    dof rx ry rz
    limits (-160.0 20.0)
           (-70.0 70.0)
           (-70.0 60.0)
  end
  begin
     id 8 
     name rtibia
     direction -0.34202 -0.939693 0   
     length 8.08317   
     axis 0 0 -20   XYZ
    dof rx
    limits (-10.0 170.0)
 end
 begin
     id 9 
     name rfoot
     direction -0.104954 -0.281256 0.953876   
     length 2.30343  
     axis -90 -7.62852e-016 -20   XYZ
    dof rx rz
    limits (-45.0 90.0)
           (-20.0 70.0)
  end
  begin
     id 10 
     name rtoes
     direction -1.53556e-011 -4.21922e-011 1   
     length 1.14803   
     axis -90 -7.62852e-016 -20   XYZ
    dof rx
    limits (-90.0 20.0)
  end
  begin
     id 11 
     name lowerback
     direction -0.0152855 0.99353 -0.11254   
     length 2.05311   
     axis 0 0 0   XYZ
    dof rx ry rz
    limits (-20.0 45.0)
           (-30.0 30.0)
           (-30.0 30.0)
  end
  begin
     id 12 
     name upperback
     direction -0.00157509 0.999443 -0.033332   
     length 2.06353   
     axis 0 0 0   XYZ
    dof rx ry rz
    limits (-20.0 45.0)
           (-30.0 30.0)
           (-30.0 30.0)
  end
  begin
     id 13 
     name thorax
     direction 0.00577788 0.999804 0.0189484   
     length 2.08472   
     axis 0 0 0   XYZ
    dof rx ry rz
    limits (-20.0 45.0)
           (-30.0 30.0)
           (-30.0 30.0)
  end
  begin
     id 14 
     name lowerneck
     direction -1.09301e-005 0.994719 0.10264   
     length 1.76249   
     axis 0 0 0   XYZ
    dof rx ry rz
    limits (-20.0 45.0)
           (-30.0 30.0)
           (-30.0 30.0)
  end
  begin
     id 15 
     name upperneck
     direction 0.0495018 0.988526 -0.142706   
     length 1.77897   
     axis 0 0 0   XYZ
    dof rx ry rz
    limits (-20.0 45.0)
           (-30.0 30.0)
           (-30.0 30.0)
  end
  begin
     id 16
     name head
     direction 0.0142736 0.998114 -0.0597101  
     length 1.78934  
     axis 0 0 0   XYZ
    dof rx ry rz
    limits (-20.0 45.0)
           (-30.0 30.0)
           (-30.0 30.0)
  end
  begin
     id 17 
     name lclavicle
     direction 0.918111 0.396107 -0.0130883  
     length 3.37276  
     axis 0 0 0   XYZ
    dof ry rz
    limits (-20.0 10.0)
           (0.0 20.0)
  end
  begin
     id 18 
     name lhumerus
     direction 1 -4.48975e-011 -3.26108e-027   
     length 5.34298   
     axis 180 -30 -90   XYZ
    dof rx ry rz
    limits (-60.0 90.0)
           (-90.0 90.0)
           (-90.0 90.0)
  end
  begin
     id 19
     name lradius
     direction 1 -4.48964e-011 -8.84413e-028   
     length 3.67262   
     axis 180 -30 -90   XYZ
    dof rx
    limits (-10.0 170.0)
  end
  begin
     id 20
     name lwrist
     direction 1 -4.48991e-011 -1.24264e-027   
     length 1.83631   
     axis -2.17013e-015 90 90   XYZ
    dof ry
    limits (-180.0 0.0)
 end
  begin
     id 21 
     name lhand
     direction 1 -4.48855e-011 -2.48528e-027   
     length 0.599298   
     axis 1.58582e-015 90 90   XYZ
    dof rx rz
    limits (-90.0 90.0)
           (-45.0 45.0)
  end
  begin
     id 22 
     name lfingers
     direction 1 -4.48811e-011 -4.97056e-027   
     length 0.48317   
     axis 3.17164e-015 90 90   XYZ
    dof rx
    limits (0.0 90.0)
  end
  begin
     id 23
     name lthumb
     direction 0.707107 -6.34882e-011 0.707107   
     length 0.693738   
     axis -90 45 2.85299e-015   XYZ
    dof rx rz
    limits (-45.0 45.0)
           (-45.0 45.0)
  end
  begin
     id 24 
     name rclavicle
     direction -0.920511 0.384752 -0.0680135   
     length 3.43787  
     axis 0 0 0   XYZ 
    dof ry rz
    limits (-10.0 20.0)
           (-20.0 0.0)
  end
  begin
     id 25 
     name rhumerus
     direction -0.999976 -0.00330524 0.00603274  
     length 5.5498   
     axis 180 30 90   XYZ
    dof rx ry rz
    limits (-90.0 60.0)
           (-90.0 90.0)
           (-90.0 90.0)
  end
  begin
     id 26 
     name rradius
     direction -1 -4.48967e-011 8.62438e-027   
     length 3.69401   
     axis 180 30 90   XYZ
    dof rx
    limits (-10.0 170.0)
  end
  begin
     id 27 
     name rwrist
     direction -1 -4.4897e-011 9.54866e-027   
     length 1.84701   
     axis -7.69462e-015 -90 -90   XYZ
    dof ry
    limits (-180.0 0.0)
  end
  begin
     id 28
     name rhand
     direction -1 -4.48982e-011 1.90973e-026   
     length 0.638113   
     axis -1.21857e-014 -90 -90   XYZ
    dof rx rz
    limits (-90.0 90.0)
           (-45.0 45.0)
  end
  begin
     id 29
     name rfingers
     direction -1 -4.48936e-011 3.81946e-026   
     length 0.514463   
     axis -2.43714e-014 -90 -90   XYZ
    dof rx
    limits (0.0 90.0)
  end
  begin
     id 30
     name rthumb
     direction -0.707107 -6.34942e-011 0.707107   
     length 0.738669   
     axis -90 -45 -2.85299e-015   XYZ
    dof rx rz
    limits (-45.0 45.0)
           (-45.0 45.0)
  end
:hierarchy
  begin
    root lhipjoint rhipjoint lowerback
    lhipjoint lfemur
    lfemur ltibia
    ltibia lfoot
    lfoot ltoes
    rhipjoint rfemur
    rfemur rtibia
    rtibia rfoot
    rfoot rtoes
    lowerback upperback
    upperback thorax
    thorax lowerneck lclavicle rclavicle
    lowerneck upperneck
    upperneck head
    lclavicle lhumerus
    lhumerus lradius
    lradius lwrist
    lwrist lhand lthumb
    lhand lfingers
    rclavicle rhumerus
    rhumerus rradius
    rradius rwrist
    rwrist rhand rthumb
    rhand rfingers
  end

#!OML:ASF F:\twosubjects\two\Thursday\Session 1\Rory.ASF
:FULLY-SPECIFIED
:DEGREES
33
root 7.45051 10.3824 11.9786 161.59 -6.31906 177.007
lowerback 38.0276 6.12616 3.73291
upperback 18.5966 2.08551 0.219776
thorax 1.9958 -1.5201 -2.42229
lowerneck 1.42931 19.6788 12.2306
upperneck -15.4796 24.7088 -29.6853
head 0.877347 12.7657 -9.76946
rclavicle -2.22639e-014 -1.55052e-014
rhumerus 31.7743 26.4485 -57.9187
rradius 60.4998
rwrist -6.06933
rhand -44.346 35.6925
rfingers 7.12502
rthumb -17.1543 6.42978
lclavicle -2.22639e-014 -1.55052e-014
lhumerus 35.538 -36.4406 63.3158
lradius 56.8518
lwrist -19.1342
lhand -15.3537 18.1929
lfingers 7.12502
lthumb 10.8236 47.894
rfemur -71.5142 -23.5727 3.55613
rtibia 110.992
rfoot -14.0541 5.13294
rtoes 4.29545
lfemur -63.7935 23.231 -1.25274
ltibia 105.11
lfoot -13.0846 -20.4473
ltoes -4.42958
34
root 7.45132 10.3802 11.9752 161.739 -6.33079 176.778
lowerback 37.9498 6.21983 3.44747
upperback 18.5374 2.14884 0.187969
thorax 1.93692 -1.49381 -2.32474
lowerneck 1.44993 19.701 12.281
upperneck -15.4389 24.7572 -29.6822
head 0.900995 12.7884 -9.76533
rclavicle -2.66371e-014 1.70955e-014
rhumerus 31.639 26.4771 -57.9599
rradius 60.5016
rwrist -5.90148
rhand -44.3999 35.1
rfingers 7.12502
rthumb -17.2061 5.84179
lclavicle -2.66371e-014 1.70955e-014
lhumerus 35.6007 -36.4553 63.4308
lradius 56.6968
lwrist -19.2198
lhand -15.4391 18.2187
lfingers 7.12502
lthumb 10.7412 47.9241
rfemur -71.783 -23.7039 3.41572
rtibia 111.035
rfoot -14.0611 5.25684
rtoes 6.35814
lfemur -63.9204 23.4082 -1.79953
ltibia 104.996
lfoot -14.1786 -19.5984
ltoes -9.96471
35
root 7.45009 10.3788 11.9747 161.732 -6.28436 176.928
lowerback 37.9612 6.18615 3.60875
upperback 18.5093 2.17431 0.211554
thorax 1.91449 -1.46574 -2.38989
lowerneck 1.37872 19.7365 12.3762
upperneck -15.2913 24.8461 -29.6632
head 0.980953 12.818 -9.73728
rclavicle 4.6118e-014 -1.59028e-015
rhumerus 31.2653 26.351 -58.2467
rradius 60.7801
rwrist -5.7673
rhand -44.2754 35.1167
rfingers 7.12502
rthumb -17.0863 5.84803
lclavicle 4.6118e-014 -1.59028e-015
lhumerus 35.6887 -36.5956 63.1804
lradius 56.744
lwrist -18.9445
lhand -15.2605 18.1223
lfingers 7.12502
lthumb 10.9135 47.8186
rfemur -71.779 -23.7491 3.5647
rtibia 111.064
rfoot -14.0373 5.32191
rtoes 4.71019
lfemur -63.98 23.5131 -1.67028
ltibia 105.012
lfoot -14.3823 -19.4998
ltoes -10.8921
36
root 7.44831 10.382 11.9765 161.654 -6.3026 177.051
lowerback 37.9552 6.12158 3.79904
upperback 18.5689 2.12872 0.216748
thorax 1.99448 -1.48195 -2.47159
lowerneck 1.2739 19.7855 12.4256
upperneck -15.1818 24.9378 -29.6796
head 1.05603 12.8499 -9.71174
rclavicle 5.36719e-015 -1.39149e-014
rhumerus 31.1956 26.2511 -58.3143
rradius 60.9252
rwrist -5.73876
rhand -44.2797 35.5055
rfingers 7.12502
rthumb -17.0904 6.23716
lclavicle 5.36719e-015 -1.39149e-014
lhumerus 35.5363 -36.6302 63.1192
lradius 56.9138
lwrist -18.8766
lhand -15.1116 17.7364
lfingers 7.12502
lthumb 11.0571 47.4252
rfemur -71.6108 -23.7847 3.61521
rtibia 111.049
rfoot -13.9612 5.52652
rtoes 8.19615
lfemur -63.9267 23.4132 -1.43711
ltibia 105.066
lfoot -14.0063 -19.8284
ltoes -8.7283
37
root 7.44637 10.3845 11.9782 161.575 -6.36237 177.083
lowerback 38.0099 6.06558 3.91027
upperback 18.6177 2.0656 0.214198
thorax 2.037 -1.51473 -2.5148
lowerneck 1.24422 19.8155 12.3413
upperneck -15.2227 24.9634 -29.6684
head 1.04054 12.8641 -9.69381
rclavicle 2.84262e-014 -3.81667e-014
rhumerus 31.5549 26.2925 -58.063
rradius 60.6181
rwrist -5.71624
rhand -44.4818 35.7776
rfingers 7.12502
rthumb -17.2849 6.52625
lclavicle 2.84262e-014 -3.81667e-014
lhumerus 35.4307 -36.5228 63.3847
lradius 56.8602
lwrist -19.0814
lhand -14.7445 17.1193
lfingers 7.12502
lthumb 11.4112 46.7888
rfemur -71.47 -23.8575 3.59957
rtibia 111.005
rfoot -14.0547 5.43922
rtoes 4.8519
lfemur -63.8292 23.2834 -1.41142
ltibia 105.049
lfoot -14.0134 -19.7879
ltoes -8.54395
38
root 7.44535 10.3841 11.9764 161.606 -6.30622 177.095
lowerback 37.6958 6.12968 3.85734
upperback 18.7617 2.09439 0.297636
thorax 2.29067 -1.51387 -2.41491
lowerneck 1.4308 19.8742 12.185
upperneck -15.4884 24.9909 -29.7858
head 0.938675 12.9114 -9.74189
rclavicle -7.13637e-014 5.04913e-014
rhumerus 31.8706 26.3298 -57.7241
rradius 60.4639
rwrist -5.75346
rhand -44.5478 35.862
rfingers 7.12502
rthumb -17.3485 6.61622
lclavicle -7.13637e-014 5.04913e-014
lhumerus 35.6505 -36.3826 63.4522
lradius 56.7513
lwrist -19.0567
lhand -14.5949 17.044
lfingers 7.12502
lthumb 11.5555 46.7054
rfemur -71.5241 -23.7886 3.67482
rtibia 110.973
rfoot -14.0496 5.45136
rtoes 6.10623
lfemur -63.8324 23.3002 -1.25234
ltibia 105.123
lfoot -13.464 -20.1789
ltoes -5.6096
39
root 7.44556 10.3816 11.9745 161.729 -6.2113 177.132
lowerback 38.9101 5.89691 4.08483
upperback 17.7956 2.20713 -0.0187917
thorax 0.874223 -1.34755 -2.86092
lowerneck 1.75133 19.8452 12.4413
upperneck -14.969 25.1329 -29.2051
head 0.995319 12.9759 -9.59224
rclavicle -3.35946e-014 1.98785e-014
rhumerus 30.3945 26.6198 -58.6529
rradius 60.6453
rwrist -5.62956
rhand -44.5265 35.7592
rfingers 7.12502
rthumb -17.328 6.51163
lclavicle -3.35946e-014 1.98785e-014
lhumerus 34.6354 -37.2037 63.6564
lradius 56.8701
lwrist -18.813
lhand -15.0393 17.3171
lfingers 7.12502
lthumb 11.1268 47.0021
rfemur -71.7305 -23.7205 3.84951
rtibia 110.965
rfoot -14.0628 5.25044
rtoes 3.73489
lfemur -63.9768 23.4057 -1.08613
ltibia 105.208
lfoot -12.9524 -20.5739
ltoes -3.12555
